<?xml version="1.0" encoding="UTF-8"?>
<svg id="Layer_1" data-name="Layer 1" xmlns="http://www.w3.org/2000/svg" viewBox="0 0 454.27 27.88">
  <defs>
    <style>
      .cls-1 {
        fill: #ffcb05;
      }

      .cls-1, .cls-2 {
        stroke-width: 0px;
      }

      .cls-2 {
        fill: #fff;
      }
    </style>
  </defs>
  <path class="cls-2" d="M46.56,0h.4v27.73h-.4V0h0ZM46.56,0"/>
  <path class="cls-1" d="M19.39,22.89l-7.94-10.85v7.89h3.16v7.8H0v-7.8h2.96V7.79H0V0h11.47l7.91,10.93L27.3,0h11.47v7.79h-2.96v12.14h2.96v7.8h-14.6v-7.8h3.16v-7.89l-7.94,10.85h0ZM19.39,22.89"/>
  <path class="cls-2" d="M164.23,27.72v-.32c.4-.03.71-.06.71-.38,0-.12-.04-.24-.07-.35l-.17-.6h-2.07l-.18.5c-.04.13-.07.24-.07.37,0,.41.44.44.8.46v.32h-2.42v-.32c.62-.03.82-.15,1.04-.77l1.59-4.36-.09-.14c.68-.22.87-.33,1.16-.54.12.4.13.45.26.87l1.3,3.99c.23.71.34.88.97.95v.32h-2.74ZM163.7,23.01l-.86,2.43h1.69l-.83-2.43h0ZM143.26,26.41c-.26.42-.88,1.46-2.5,1.46-1.77,0-2.91-1.3-2.91-3.01,0-1.59.97-3.15,2.95-3.15,1.04,0,1.6.44,1.94.71l.4-.36.03,1.78-.26.05c-.1-.34-.25-.62-.63-1.03-.18-.19-.61-.57-1.23-.57-1.06,0-1.9.86-1.9,2.39,0,1.29.69,2.5,2.05,2.5,1.02,0,1.41-.57,1.72-1.01l.35.26h0ZM144.25,27.72v-.32c.66-.06.67-.2.67-.77,0-.21,0-.41,0-.62v-2.46c0-.39,0-.77-.03-.95-.03-.35-.2-.4-.65-.44v-.32h2.52v.32c-.49.05-.68.07-.73.39-.04.19-.05.62-.05.97v.81c.51.03.86.04,1.35.04s.89-.02,1.39-.04v-.98c0-1.07-.02-1.12-.82-1.19v-.32h2.55v.32c-.68.08-.68.09-.68,1.21v2.48c0,.23,0,.97.04,1.14.04.31.21.37.65.41v.31h-2.55v-.31c.59-.07.75-.08.8-.49.02-.17.02-.39.02-.82v-1.08c-.46-.02-.85-.04-1.33-.04-.51,0-.91.02-1.41.04v1.08c0,1.22.02,1.22.78,1.3v.32h-2.51ZM151.5,27.72v-.32c.57-.08.69-.14.7-.75v-3.13c0-1.22,0-1.25-.7-1.36v-.32h2.44v.32c-.69.07-.69.1-.69,1.36v2.37c0,.21,0,.87.02,1.04.04.36.21.44.67.47v.32h-2.44ZM134.77,27.72v-.32c.58-.08.69-.14.7-.75v-3.13c0-1.22,0-1.25-.7-1.36v-.32h2.44v.32c-.69.07-.69.1-.69,1.36v2.37c0,.21,0,.87.02,1.04.04.36.21.44.66.47v.32h-2.44ZM131.07,27.72v-.32c.74-.05.74-.08.75-1.17v-2.95l-2.05,4.51h-.52l-1.89-4.57-.04,3.45c0,.57.07.68.69.73v.32h-2.04v-.32c.47-.03.66-.09.69-.49.02-.16.04-.65.05-.98l.08-2.46c0-.19,0-.47,0-.68,0-.58-.12-.62-.64-.63v-.32h1.85l1.83,4.46,2.02-4.46h1.79v.35c-.7.04-.71.12-.7,1.03v2.42c0,.4,0,.9.04,1.2.03.43.2.52.66.56v.32h-2.57ZM167.35,27.72v-.32c.48-.03.67-.03.73-.37.09-.39.11-3.87.12-4.48-.32-.3-.46-.36-.85-.39v-.32h1.76c.49.7.6.86,1.46,1.93l1.64,2.03v-2.63c0-.93-.03-.98-.96-1.01v-.32h2.32v.32c-.64,0-.7.14-.71,1.1l-.08,4.53h-.35l-.53-.66c-.26-.33-.53-.67-.8-.99l-2.32-2.86v3.04c0,.95.06.98.96,1.08v.32h-2.4ZM118.37,24.77c0,2.03-1.38,3.1-2.94,3.1-1.71,0-3.04-1.23-3.04-3.11,0-1.6,1.07-3.05,2.96-3.04,1.78,0,3.02,1.27,3.02,3.05h0ZM115.44,27.33c.33,0,.8-.17,1.16-.73.41-.64.5-1.22.48-1.98-.02-.75-.23-1.41-.67-1.87-.19-.2-.56-.5-1.05-.48-.49,0-.85.31-1.03.52-.42.47-.61,1.13-.61,1.89s.1,1.35.54,1.97c.38.54.85.69,1.18.69h0ZM118.96,27.39v.32h2.43v-.32c-.61-.06-.68-.11-.7-.76v-1.67h.66c.66,0,1.01.06,1.05.71h.28v-1.94h-.28c-.03.63-.21.7-.92.7h-.77v-2.04c.21-.03.32-.03.7-.03,1.15,0,1.52,0,1.67.91h.29l-.09-1.44h-4.31v.32c.42.04.61.07.67.34.04.18.05.83.05,1.07v2.06c0,.16,0,.87-.02,1.01-.02.64-.09.7-.7.76h0ZM68.5,27.68v-.32c.57-.08.69-.14.69-.75v-3.13c0-1.22,0-1.25-.69-1.35v-.32h2.44v.32c-.69.07-.69.1-.69,1.35v2.37c0,.21,0,.87.03,1.04.04.36.21.44.66.47v.32h-2.44ZM94.36,27.68v-.32c.58-.08.69-.14.7-.75v-3.13c0-1.22,0-1.25-.7-1.35v-.32h2.44v.32c-.69.07-.69.1-.69,1.35v2.37c0,.21,0,.87.03,1.04.04.36.21.44.66.47v.32h-2.44ZM61.34,27.68v-.32c.48-.02.67-.03.73-.36.08-.39.11-3.88.12-4.48-.33-.3-.46-.36-.85-.39v-.32h1.77c.49.7.6.86,1.46,1.93l1.64,2.03v-2.63c0-.93-.04-.98-.96-1.01v-.32h2.31v.32c-.64,0-.7.14-.7,1.1l-.09,4.53h-.35l-.52-.66c-.27-.34-.53-.66-.8-.99l-2.32-2.86v3.04c0,.95.07.98.97,1.07v.32h-2.4ZM89.51,25.85l.3-.03c.32.96.86,1.47,1.75,1.47.62,0,1.17-.27,1.17-.89,0-.67-.64-.93-.92-1.05-.24-.09-.49-.17-.72-.26-.48-.18-1.39-.55-1.39-1.69s.86-1.71,1.87-1.71c.39,0,.85.09,1.35.4l.35-.26.19,1.75-.29.06c-.1-.39-.17-.56-.41-.87-.28-.36-.68-.54-1.14-.54-.62,0-.99.3-.99.77,0,.7.69.93,1.34,1.14.33.11.61.2.85.34.46.28.85.79.85,1.5,0,1.02-.83,1.86-2.07,1.86-.8,0-1.29-.32-1.52-.47l-.49-.35-.09-1.16h0ZM99.16,27.68v-.25c.54-.01.69-.21.69-.67v-4.33h-.73c-.66,0-1.11-.03-1.16,1.02h-.3l.05-1.65h5.33l.05,1.65h-.31c-.05-1.05-.49-1.02-1.15-1.02h-.73v4.33c0,.46.15.66.69.67v.25h-2.43ZM56.85,21.8v.32c-.79.05-.79.08-.79,1.33v1.38c0,.72.02,1.33.4,1.88.3.44.81.49,1.07.49.84,0,1.31-.43,1.5-1.13.16-.55.17-1.58.17-2.26,0-.22,0-.92,0-1.11-.03-.54-.31-.55-.83-.59v-.32h2.24v.32c-.55-.01-.67.11-.7.7,0,.14-.07,1.77-.08,2.02-.02.45-.04.89-.14,1.31-.4,1.58-1.94,1.67-2.35,1.67-.32,0-.99-.05-1.54-.42-.88-.59-.88-1.47-.88-2.42v-1.33c0-.63,0-.91-.02-1.06-.05-.37-.23-.44-.68-.46v-.32h2.65ZM77.67,21.8v.32c-.57.08-.65.24-1.12,1.4l-1.79,4.26h-.32l-1.6-4.33c-.4-1.11-.45-1.25-1.04-1.34v-.32h2.79v.32c-.48.02-.79.03-.79.37,0,.17.04.31.2.8l1.02,2.99,1.2-3.08c.07-.21.17-.48.17-.62,0-.43-.41-.45-.78-.45v-.32h2.06ZM105.5,27.68v-.32c.46-.05.64-.06.75-.18.14-.13.14-.28.14-.92v-1.03l-1.56-2.42c-.42-.63-.43-.65-1-.68v-.33h3.06v.33c-.62.02-.89.03-.89.31,0,.16.11.34.26.59l.89,1.47.83-1.46c.15-.29.24-.46.24-.6,0-.28-.24-.28-.65-.31v-.33h2.29v.33c-.59.02-.76.19-1.43,1.29l-.91,1.53v1.22c0,1.07,0,1.15.88,1.2v.32h-2.9ZM82.7,27.68c0-.43.07-1.12.12-1.52h-.28c-.2,1.05-.79,1-1.64,1-.78,0-.94-.21-.94-.59v-1.64h.63c.72,0,.93.06.93.72h.28v-1.94h-.28c-.05.52-.16.7-.92.7h-.64v-2.07h.72c1,0,1.35.08,1.49.87h.27l-.04-1.39h-4.18v.32c.42.04.6.07.66.34.04.18.05.83.05,1.06v2.06c0,.16,0,.87-.01,1.01-.02.64-.09.7-.7.76v.32h4.48ZM160.45,25.12v.32c-.53.03-.53.18-.55,1.3v.44c-.45.28-1.1.69-2.26.69-2.02,0-2.98-1.53-2.98-3.07,0-1.88,1.27-3.1,2.87-3.1,1,0,1.58.38,2.06.67l.31-.35.05,1.83-.24.05c-.12-.35-.3-.75-.74-1.2-.19-.19-.57-.44-1.16-.44-1.02,0-1.88.86-1.88,2.56,0,1.35.67,2.5,1.81,2.5.65,0,.99-.46,1.02-.49.11-.16.13-.3.12-.55-.03-.75-.12-.77-.78-.83v-.32h2.37ZM85.43,24.53c.16.03.38.06.55.06.67,0,1.17-.52,1.2-.99.04-.68-.31-1.27-1.39-1.27-.15,0-.24,0-.36.04v2.17h0ZM85.43,25.81c0,1.35,0,1.53.72,1.55v.32h-2.45v-.32c.63-.05.7-.15.71-.78,0-.24,0-.52,0-.75v-2.12c0-.7,0-.95-.03-1.15-.04-.32-.2-.39-.68-.43v-.32h2.66c1.45,0,1.91.7,1.91,1.52,0,.57-.35,1.3-1.16,1.55l1.04,1.81c.38.69.57.85,1.05.91v.2c-.13.01-.25.02-.39.02-1.11,0-1.56-.38-2.03-1.37l-.32-.69c-.35-.74-.47-.7-1.02-.71v.77h0ZM85.43,25.81"/>
  <rect class="cls-2" x="55.94" y=".43" width="2.21" height="17.33"/>
  <path class="cls-2" d="M71.28.43v14.83h-.05L64.49.43h-3.12v17.33h1.97V2.73h.05l6.84,15.03h3.02V.43h-1.97ZM71.28.43"/>
  <path class="cls-2" d="M78.21,17.76v-7.92h6.05v-1.92h-6.05V2.35h6.39V.43h-8.59v17.33h2.21ZM78.21,17.76"/>
  <path class="cls-2" d="M91.13,18.12c3.67,0,5.45-1.9,5.45-6.7v-5.69c0-3.45-1.77-5.66-5.45-5.66s-5.45,2.21-5.45,5.66v5.69c0,4.8,1.78,6.7,5.45,6.7h0ZM91.13,16.27c-2.09,0-3.19-.96-3.19-4.75v-5.86c0-3.62,2.5-3.74,3.19-3.74s3.19.12,3.19,3.74v5.86c0,3.79-1.11,4.75-3.19,4.75h0ZM91.13,16.27"/>
  <path class="cls-2" d="M101.5,2.35h3.34c1.7,0,2.33,1.39,2.33,2.64,0,1.51-.77,2.88-2.35,2.88h-3.31V2.35ZM104.09,9.79c.74,0,2.45.09,2.61,2.21.19,2.3.05,4.56.67,5.76h2.31c-.34-1.08-.58-3.79-.6-4.54-.12-3.48-.84-4.15-2.83-4.46v-.05c2.04-.36,3.17-1.92,3.17-3.96,0-2.16-1.08-4.32-4.15-4.32h-5.98v17.33h2.21v-7.97h2.59ZM104.09,9.79"/>
  <path class="cls-2" d="M113.69,2.35h.05l4.75,15.41h2.09l4.85-15.41h.05v15.41h2.21V.43h-3.65l-4.41,14.54h-.05L115.2.43h-3.57v17.33h2.06V2.35ZM113.69,2.35"/>
  <path class="cls-2" d="M128.93,17.76h2.23l1.3-4.13h6.69l1.25,4.13h2.47L137.23.43h-2.8l-5.5,17.33ZM138.55,11.71h-5.54l2.71-9.24h.05l2.78,9.24ZM138.55,11.71"/>
  <path class="cls-2" d="M142.49.43v1.92h4.56v15.41h2.21V2.35h4.56V.43h-11.33ZM142.49.43"/>
  <rect class="cls-2" x="155.31" y=".43" width="2.21" height="17.33"/>
  <path class="cls-2" d="M165.98,18.12c3.67,0,5.45-1.9,5.45-6.7v-5.69c0-3.45-1.78-5.66-5.45-5.66s-5.45,2.21-5.45,5.66v5.69c0,4.8,1.78,6.7,5.45,6.7h0ZM165.98,16.27c-2.09,0-3.19-.96-3.19-4.75v-5.86c0-3.62,2.5-3.74,3.19-3.74s3.19.12,3.19,3.74v5.86c0,3.79-1.11,4.75-3.19,4.75h0ZM165.98,16.27"/>
  <path class="cls-2" d="M184.22.43v14.83h-.05l-6.74-14.83h-3.12v17.33h1.97V2.73h.05l6.84,15.03h3.02V.43h-1.97ZM184.22.43"/>
  <path class="cls-2" d="M191.79,17.76h2.23l1.3-4.13h6.7l1.25,4.13h2.47L200.09.43h-2.81l-5.5,17.33ZM201.41,11.71h-5.54l2.71-9.24h.05l2.78,9.24ZM201.41,11.71"/>
  <path class="cls-2" d="M216.98.43v14.83h-.05l-6.75-14.83h-3.12v17.33h1.97V2.73h.05l6.84,15.03h3.02V.43h-1.97ZM216.98.43"/>
  <path class="cls-2" d="M224.14,2.35h2.9c2.3,0,3.39,1.3,3.39,4.8v3.5c0,4.03-1.13,5.18-4.2,5.18h-2.09V2.35ZM221.93,17.76h3.98c3.03,0,4.78-.75,5.71-2.23.72-1.15,1.05-3.29,1.05-6.99,0-.55-.07-4.01-.77-5.47-.86-1.85-2.45-2.64-4.65-2.64h-5.33v17.33ZM221.93,17.76"/>
  <path class="cls-2" d="M238.11.43v1.92h4.56v15.41h2.21V2.35h4.56V.43h-11.33ZM238.11.43"/>
  <path class="cls-2" d="M259.7,17.76v-1.92h-6.86v-6h6.24v-1.92h-6.24V2.35h6.72V.43h-8.93v17.33h9.07ZM259.7,17.76"/>
  <path class="cls-2" d="M271.46,5.21c.21-3.36-1.11-5.14-4.54-5.14s-5.57,1.39-5.57,6.29v4.9c0,6.72,3.31,6.86,5.47,6.86,1.13,0,4.99,0,4.89-5.47h-2.28c-.02,3.38-2.07,3.62-2.74,3.62-1.7,0-3.09-.5-3.09-4.75v-4.63c0-2.98.43-3.41.5-3.6.07-.24.79-1.34,2.61-1.34.46,0,1.49.19,1.95.74.46.55.53,1.54.5,2.52h2.28ZM271.46,5.21"/>
  <path class="cls-2" d="M276.17,17.76v-7.92h6.07v7.92h2.21V.43h-2.21v7.49h-6.07V.43h-2.21v17.33h2.21ZM276.17,17.76"/>
  <path class="cls-2" d="M297.43.43v14.83h-.05l-6.74-14.83h-3.12v17.33h1.97V2.73h.05l6.84,15.03h3.02V.43h-1.96ZM297.43.43"/>
  <path class="cls-2" d="M307.7,18.12c3.67,0,5.45-1.9,5.45-6.7v-5.69c0-3.45-1.78-5.66-5.45-5.66s-5.45,2.21-5.45,5.66v5.69c0,4.8,1.77,6.7,5.45,6.7h0ZM307.7,16.27c-2.09,0-3.19-.96-3.19-4.75v-5.86c0-3.62,2.5-3.74,3.19-3.74s3.19.12,3.19,3.74v5.86c0,3.79-1.1,4.75-3.19,4.75h0ZM307.7,16.27"/>
  <path class="cls-2" d="M324.48,17.76v-1.92h-6.36V.43h-2.21v17.33h8.57ZM324.48,17.76"/>
  <path class="cls-2" d="M330.86,18.12c3.67,0,5.45-1.9,5.45-6.7v-5.69c0-3.45-1.78-5.66-5.45-5.66s-5.45,2.21-5.45,5.66v5.69c0,4.8,1.78,6.7,5.45,6.7h0ZM330.86,16.27c-2.09,0-3.19-.96-3.19-4.75v-5.86c0-3.62,2.5-3.74,3.19-3.74s3.19.12,3.19,3.74v5.86c0,3.79-1.1,4.75-3.19,4.75h0ZM330.86,16.27"/>
  <path class="cls-2" d="M349.68,5.06c.14-3.62-1.63-4.99-5.37-4.99s-5.45,2.21-5.45,5.66v5.69c0,4.8,1.78,6.7,5.45,6.7,2.23,0,3.89-.53,5.3-1.3v-8.43h-5.4v1.92h3.19v5.18c-.45.34-1.51.77-3.09.77-2.09,0-3.19-.96-3.19-4.75v-5.86c0-3.62,2.5-3.74,3.19-3.74,2.23,0,3.07,1.1,3.07,3.14h2.3ZM349.68,5.06"/>
  <path class="cls-2" d="M356.76,8.81l-3.39-8.37h-2.47l4.66,10.73v6.6h2.21v-6.6l4.73-10.73h-2.23l-3.5,8.37ZM356.76,8.81"/>
  <path class="cls-2" d="M367.34,12.6c-.05,1.66-.05,5.57,5.06,5.52,2.86,0,5.38-1.17,5.38-4.82,0-5.5-7.78-4.94-7.78-8.76,0-1.87,1.34-2.54,2.66-2.54,2.09,0,2.69,1.25,2.66,3.14h2.3c.14-3.53-1.63-5.07-4.8-5.07-2.9,0-5.09,1.63-5.09,4.71,0,5.21,7.77,4.77,7.77,8.61,0,2.07-1.34,2.81-3.09,2.81-1.42,0-2.91-.74-2.91-3.09v-.5h-2.18ZM367.34,12.6"/>
  <path class="cls-2" d="M389.16,17.76v-1.92h-6.86v-6h6.24v-1.92h-6.24V2.35h6.72V.43h-8.93v17.33h9.07ZM389.16,17.76"/>
  <path class="cls-2" d="M393.17,2.35h3.34c1.7,0,2.33,1.39,2.33,2.64,0,1.51-.77,2.88-2.35,2.88h-3.31V2.35ZM395.76,9.79c.74,0,2.45.09,2.61,2.21.19,2.3.05,4.56.67,5.76h2.3c-.34-1.08-.57-3.79-.6-4.54-.12-3.48-.84-4.15-2.83-4.46v-.05c2.04-.36,3.17-1.92,3.17-3.96,0-2.16-1.08-4.32-4.15-4.32h-5.98v17.33h2.21v-7.97h2.59ZM395.76,9.79"/>
  <path class="cls-2" d="M414.36.43h-2.25l-4.06,15.24h-.05l-3.96-15.24h-2.4l5.02,17.33h2.64l5.06-17.33ZM414.36.43"/>
  <rect class="cls-2" x="415.82" y=".43" width="2.21" height="17.33"/>
  <path class="cls-2" d="M431.04,5.21c.22-3.36-1.1-5.14-4.54-5.14s-5.57,1.39-5.57,6.29v4.9c0,6.72,3.31,6.86,5.47,6.86,1.13,0,4.99,0,4.9-5.47h-2.28c-.02,3.38-2.06,3.62-2.73,3.62-1.7,0-3.1-.5-3.1-4.75v-4.63c0-2.98.43-3.41.5-3.6.07-.24.79-1.34,2.62-1.34.46,0,1.49.19,1.95.74.45.55.53,1.54.5,2.52h2.28ZM431.04,5.21"/>
  <path class="cls-2" d="M442.46,17.76v-1.92h-6.86v-6h6.24v-1.92h-6.24V2.35h6.72V.43h-8.93v17.33h9.07ZM442.46,17.76"/>
  <path class="cls-2" d="M443.83,12.6c-.05,1.66-.05,5.57,5.06,5.52,2.86,0,5.38-1.17,5.38-4.82,0-5.5-7.78-4.94-7.78-8.76,0-1.87,1.34-2.54,2.66-2.54,2.09,0,2.69,1.25,2.66,3.14h2.3c.14-3.53-1.63-5.07-4.8-5.07-2.9,0-5.09,1.63-5.09,4.71,0,5.21,7.78,4.77,7.78,8.61,0,2.07-1.34,2.81-3.09,2.81-1.42,0-2.91-.74-2.91-3.09v-.5h-2.18ZM443.83,12.6"/>
</svg>